<?xml version="1.0" standalone="no"?>
<!DOCTYPE svg PUBLIC "-//W3C//DTD SVG 20010904//EN"
 "http://www.w3.org/TR/2001/REC-SVG-20010904/DTD/svg10.dtd">
<svg version="1.0" xmlns="http://www.w3.org/2000/svg"
 width="314.000000pt" height="314.000000pt" viewBox="0 0 314.000000 314.000000"
 preserveAspectRatio="xMidYMid meet">
<metadata>
Created by potrace 1.14, written by Peter Selinger 2001-2017
</metadata>
<g transform="translate(0.000000,314.000000) scale(0.100000,-0.100000)"
fill="#000000" stroke="none">
<path d="M2245 2999 c-137 -3 -425 -11 -640 -17 -691 -20 -1188 -33 -1285 -35
l-95 -2 2 -485 c1 -267 4 -684 8 -928 l7 -443 29 -14 c15 -8 46 -15 69 -15 25
0 39 -4 35 -10 -4 -6 33 -10 102 -11 68 -1 95 -4 73 -8 -27 -5 -14 -8 55 -12
52 -4 100 -2 112 4 18 8 31 6 56 -8 27 -14 49 -17 110 -13 43 3 77 1 77 -4 0
-5 48 -9 108 -8 198 2 228 1 212 -11 -11 -7 31 -9 140 -6 92 3 124 1 80 -3
-41 -3 -66 -7 -55 -9 99 -12 167 -16 171 -9 3 4 40 7 82 6 68 -1 72 -2 32 -8
-43 -7 -41 -7 25 -9 88 -3 112 -6 153 -15 20 -5 32 -4 32 3 0 5 -10 12 -22 14
-13 2 -2 5 24 6 40 1 46 -2 41 -15 -5 -14 10 -16 153 -11 88 2 125 1 84 -3
-41 -3 -61 -7 -45 -9 17 -1 50 -4 75 -7 25 -2 76 0 114 6 39 6 90 7 115 3 l46
-8 -45 -6 c-25 -4 34 -5 130 -2 96 2 184 6 195 8 30 6 42 48 49 165 8 140 10
1229 2 1237 -3 4 -7 -59 -7 -138 -1 -79 -4 -187 -8 -239 -4 -58 -10 131 -15
493 l-8 587 -162 -2 c-88 -1 -273 -5 -411 -9z m493 -108 c14 -46 16 -207 2
-216 -5 -3 -6 -15 -1 -29 5 -12 6 -99 2 -192 -4 -93 -3 -324 2 -514 5 -190 6
-399 2 -465 l-7 -121 -29 -13 c-21 -9 -71 -12 -177 -9 -135 3 -150 5 -176 26
-16 12 -24 22 -17 22 6 0 11 5 11 11 0 7 -9 9 -24 5 -16 -4 -24 -2 -23 7 1 33
-5 45 -27 55 -13 6 -30 24 -37 41 -13 29 -17 31 -69 32 -30 0 -50 3 -43 5 8 4
1 16 -19 36 -27 26 -32 28 -40 14 -7 -12 -24 -16 -69 -16 -40 0 -65 -5 -75
-15 -13 -12 -5 -15 63 -18 l78 -3 -92 -2 c-91 -2 -93 -3 -93 -26 0 -15 -7 -26
-20 -29 -13 -3 -23 -17 -27 -39 l-7 -33 -8 33 c-10 36 -26 40 -66 15 -57 -37
-61 -52 -13 -54 21 -1 19 -3 -9 -8 -19 -4 -37 -3 -40 1 -4 4 -20 11 -38 14
-23 5 -33 2 -37 -8 -6 -16 -55 -13 -66 4 -3 5 -28 4 -58 -3 -37 -8 -60 -8 -79
0 -16 6 -94 10 -195 8 -148 -2 -169 0 -178 15 -5 9 -23 19 -39 23 -17 4 -30
10 -30 15 0 4 -15 15 -33 24 -61 30 -127 108 -127 150 0 24 -18 19 -22 -6 -3
-20 -10 -23 -58 -26 -60 -3 -115 -24 -141 -54 -9 -10 -23 -18 -30 -18 -8 0
-31 -5 -51 -10 -26 -8 -35 -15 -31 -25 4 -12 -4 -15 -38 -15 -43 0 -45 -13 -4
-23 11 -2 -2 -2 -30 0 -27 3 -59 6 -70 8 -24 2 -22 -55 -34 765 -5 338 -6 618
-3 621 4 4 16 3 27 -1 17 -7 17 -9 3 -9 -19 -1 -26 -31 -8 -31 6 0 10 5 10 10
0 6 8 10 18 8 9 -2 16 3 14 10 -1 6 5 12 13 12 8 0 15 -3 15 -7 0 -5 29 -6 65
-5 36 2 65 7 65 12 0 32 285 47 1145 60 352 6 672 12 710 13 39 2 133 4 211 5
l141 2 11 -39z m-678 -1381 c0 -6 -27 -10 -60 -10 -33 0 -60 4 -60 10 0 6 27
10 60 10 33 0 60 -4 60 -10z m-1487 -7 c-7 -2 -21 -2 -30 0 -10 3 -4 5 12 5
17 0 24 -2 18 -5z m-236 -59 c-3 -3 -12 -4 -19 -1 -8 3 -5 6 6 6 11 1 17 -2
13 -5z m1603 -48 c0 -9 -30 -14 -35 -6 -4 6 3 10 14 10 12 0 21 -2 21 -4z
m350 -6 c0 -5 -4 -10 -10 -10 -5 0 -10 5 -10 10 0 6 5 10 10 10 6 0 10 -4 10
-10z m30 -40 c0 -5 -8 -10 -17 -10 -15 0 -16 2 -3 10 19 12 20 12 20 0z
m-1520 -131 c0 -28 -4 -39 -15 -39 -11 0 -15 12 -15 45 0 35 3 43 15 39 10 -4
15 -20 15 -45z m80 1 c0 -45 -14 -51 -49 -21 l-22 19 28 21 c39 28 43 27 43
-19z m565 4 c63 -42 62 -46 -15 -88 l-50 -27 0 75 c0 42 2 76 5 76 3 0 30 -16
60 -36z m-325 -24 c0 -45 -1 -46 -35 -24 -31 20 -32 38 -2 52 34 17 37 15 37
-28z m80 0 c0 -26 -5 -40 -12 -40 -14 1 -63 39 -57 44 20 15 55 36 61 36 5 0
8 -18 8 -40z m524 -11 l27 -22 -28 -18 c-41 -27 -53 -24 -53 14 0 53 13 59 54
26z m77 0 c16 -11 29 -24 29 -29 0 -7 -55 -40 -67 -40 -1 0 -3 20 -3 45 0 25
3 45 6 45 3 0 19 -9 35 -21z m279 -20 l24 -21 -24 -19 c-38 -29 -50 -24 -50
21 0 45 12 50 50 19z m68 -26 c-2 -35 -7 -48 -18 -48 -11 0 -16 13 -18 48 -3
42 -1 47 18 47 19 0 21 -5 18 -47z m672 -110 c0 -70 -3 -104 -10 -97 -9 9 -3
204 7 204 1 0 3 -48 3 -107z m-1762 -30 c-16 -2 -40 -2 -55 0 -16 2 -3 4 27 4
30 0 43 -2 28 -4z"/>
<path d="M1710 2076 c0 -2 7 -7 16 -10 8 -3 12 -2 9 4 -6 10 -25 14 -25 6z"/>
<path d="M340 1496 c0 -6 11 -13 26 -14 29 -2 25 13 -6 21 -12 3 -20 0 -20 -7z"/>
<path d="M2830 2890 c0 -46 2 -81 4 -79 7 7 10 149 3 156 -4 3 -7 -31 -7 -77z"/>
<path d="M2874 2805 c0 -77 2 -107 3 -67 2 40 2 103 0 140 -2 37 -3 4 -3 -73z"/>
<path d="M1198 973 c6 -2 18 -2 25 0 6 3 1 5 -13 5 -14 0 -19 -2 -12 -5z"/>
</g>
</svg>
